<?xml version="1.0" encoding="UTF-8" standalone="no"?>
<!-- Created with Inkscape (http://www.inkscape.org/) -->

<svg
   version="1.1"
   id="svg1"
   width="861.41571"
   height="1056.0002"
   viewBox="0 0 861.41571 1056.0002"
   sodipodi:docname="130a.svg"
   inkscape:version="1.3.2 (091e20ef0f, 2023-11-25)"
   xmlns:inkscape="http://www.inkscape.org/namespaces/inkscape"
   xmlns:sodipodi="http://sodipodi.sourceforge.net/DTD/sodipodi-0.dtd"
   xmlns="http://www.w3.org/2000/svg"
   xmlns:svg="http://www.w3.org/2000/svg">
  <defs
     id="defs1" />
  <sodipodi:namedview
     id="namedview1"
     pagecolor="#ffffff"
     bordercolor="#000000"
     borderopacity="0.25"
     inkscape:showpageshadow="2"
     inkscape:pageopacity="0.0"
     inkscape:pagecheckerboard="0"
     inkscape:deskcolor="#d1d1d1"
     showgrid="false"
     inkscape:zoom="0.74353443"
     inkscape:cx="418.94496"
     inkscape:cy="527.8841"
     inkscape:window-width="1920"
     inkscape:window-height="1011"
     inkscape:window-x="0"
     inkscape:window-y="0"
     inkscape:window-maximized="1"
     inkscape:current-layer="layer2" />
  <g
     inkscape:groupmode="layer"
     id="layer2"
     inkscape:label="Layer 1"
     transform="translate(-50.042545,-13.333334)">
    <path
       style="fill:#000000"
       d="M 165.33334,874.00007 V 678.66672 L 149,678.62182 c -21.97728,-0.0604 -42.68927,-2.04786 -47.55303,-4.56301 C 82.451674,664.23596 64.17856,596.91092 55.471194,504.6667 50.696171,454.081 50.000428,435.96125 50.044428,363.33336 c 0.0534,-88.13752 2.471732,-126.25922 12.547815,-197.79887 6.228488,-44.22193 12.038118,-65.40741 24.69961,-90.069959 13.001737,-25.325297 10.469648,-23.08015 27.113997,-24.04136 7.84345,-0.452958 19.51082,-1.17217 25.92749,-1.598247 L 152,49.050239 V 31.191786 13.333334 h 25.33334 25.33333 v 17.783711 17.783711 l 49,0.880988 c 26.95,0.484544 97.95061,0.881875 157.77912,0.882958 59.82852,0.0011 175.52403,0.401346 257.10113,0.889475 l 148.32201,0.887506 8.39903,16.779162 c 14.06417,28.096669 18.58261,44.242615 28.76271,102.779165 5.70337,32.79492 8.94767,47.86471 10.73074,49.84442 1.94183,2.15597 7.16999,-20.71664 9.94564,-43.51108 l 0.93356,-7.66667 h 18.31911 18.31911 l 0.90286,17.66667 c 1.96319,38.41484 -6.28636,57.62986 -32.42965,75.53574 l -12.28174,8.41193 0.43152,398.52629 0.43153,398.52629 -351.00001,-10e-5 -351,-10e-5 z m 687.97045,30.33333 c -0.0288,-153.20451 -1.73549,-306.0588 -3.47852,-311.5506 -0.82895,-2.6118 -0.92713,-2.58522 -2.11479,0.57248 -0.68501,1.82129 -4.18499,12.67811 -7.77774,24.12627 -8.3914,26.73896 -14.43598,40.97011 -22.16524,52.18517 l -6.20269,9 H 495.78241 180 V 870.00007 1061.3334 H 516.66668 853.33335 Z M 675.33335,668.01952 c 87.76587,-1.30228 100.66667,-1.93695 100.66667,-4.95242 0,-1.03584 -2.71919,-8.12818 -6.04264,-15.76075 -7.51341,-17.25512 -13.94692,-42.5059 -19.86632,-77.97297 -10.04995,-60.2159 -12.62962,-93.82043 -13.66425,-178.00002 -1.10499,-89.90305 2.45193,-173.98788 8.99612,-212.66668 6.68579,-39.51574 18.05435,-83.933896 25.96869,-101.462405 2.53462,-5.613612 4.6084,-11.098441 4.6084,-12.18851 0,-1.418011 -2.18144,-2.241835 -7.66667,-2.895336 -16.73738,-1.99406 -160.27541,-3.364373 -351.66667,-3.357254 -196.78658,0.0073 -283.99581,1.120141 -299.89244,3.826735 -9.86867,1.680259 -14.0496,5.432713 -20.140858,18.076763 C 72.149868,131.48881 58.422796,261.48335 62.603162,402.9308 c 2.548471,86.2304 6.763727,135.20459 15.488548,179.95089 3.685059,18.89927 16.860719,64.94672 19.918789,69.61392 6.373411,9.72706 24.901161,13.70727 71.989501,15.46511 37.67245,1.40634 411.58507,1.44985 505.33335,0.0588 z m 133.13908,-9.31336 c 15.01738,-16.62245 26.56069,-61.85834 35.39506,-138.70612 10.21842,-88.88718 12.66092,-211.15398 4.76104,-238.3286 -3.27217,-11.25586 -5.56535,-12.78085 -18.12562,-12.05375 -5.7786,0.33452 -10.68738,0.85739 -10.90839,1.16194 -0.221,0.30455 0.0512,14.65372 0.6048,31.88706 1.97183,61.37756 -4.19672,160.21469 -11.54313,184.95274 -1.07961,3.63546 -3.15354,7.68741 -4.60872,9.00433 -2.44933,2.21661 -2.88755,2.236 -5.90161,0.26111 -6.85086,-4.48885 -13.35801,-30.20452 -15.47003,-61.13615 -3.32538,-48.70163 -0.004,-162.33754 5.48677,-187.7487 1.93321,-8.94608 6.1145,-16.72779 9.91983,-18.46161 2.10019,-0.95691 11.41625,-1.53839 24.64699,-1.53839 h 21.2706 l -0.0244,-17 c -0.0431,-29.96965 -8.07478,-72.86157 -20.78528,-111.00001 -8.30336,-24.914602 -16.14226,-38.666672 -22.04062,-38.666672 -11.23077,0 -29.56595,43.019252 -38.98926,91.479262 -7.42619,38.18972 -9.86483,76.47976 -10.98758,172.52076 -1.24996,106.92221 1.6876,191.48002 8.15238,234.66668 4.51321,30.14959 14.3657,66.95397 22.83007,85.28271 8.91198,19.29798 17.19356,23.52211 26.31713,13.42341 z M 802.52604,474.9295 c 1.86307,-3.48119 5.06815,-26.9967 7.03236,-51.59613 0.9606,-12.03044 1.7046,-42.55558 1.70614,-70.00001 0.002,-40.86391 -0.37485,-50.69499 -2.35226,-61.31751 -1.29523,-6.95796 -3.26824,-14.04466 -4.38446,-15.74822 -4.78114,-7.29694 -10.05401,0.35481 -12.67891,18.39906 -2.11029,14.50667 -2.04395,95.65996 0.10518,128.66668 2.92865,44.97874 6.02527,60.09168 10.57195,51.59613 z m 58.14065,-214.18784 c 21.18344,-5.86157 36.58819,-21.6466 41.18659,-42.20332 2.75164,-12.30095 3.93699,-30.49628 2.27199,-34.87556 -1.3441,-3.53524 -1.73302,-3.66277 -11.17074,-3.66277 -14.09778,0 -14.4763,0.44944 -15.79946,18.75962 -2.15426,29.81116 -7.15919,33.27277 -55.56707,38.43239 -19.75941,2.10608 -20.84909,2.98754 -22.39938,18.11926 l -0.92546,9.03304 27.20176,-0.69451 c 19.41039,-0.49558 29.4932,-1.32856 35.20177,-2.90815 z M 191.49453,42.005042 c 2.82655,-3.86554 2.34836,-13.495485 -0.82786,-16.671707 -2.20951,-2.209507 -4.44444,-2.666667 -13.03666,-2.666667 -12.95115,0 -16.29667,1.894636 -16.29667,9.229128 0,5.817512 3.84157,11.59242 8.3599,12.567161 1.63539,0.352803 6.79597,0.509912 11.46796,0.349131 6.56134,-0.2258 8.913,-0.864626 10.33333,-2.807046 z"
       id="path1" />
  </g>
</svg>
